HIERARCHY
ROOT Hips
{
	OFFSET 0.00 0.00 0.00
	CHANNELS 6 Xposition Yposition Zposition Xrotation Yrotation Zrotation
	JOINT LeftUpLeg
	{
		OFFSET 3.62969 0.00000 0.00000
		CHANNELS 3 Xrotation Yrotation Zrotation
		JOINT LeftLeg
		{
			OFFSET 0.00000 -17.03056 0.00000
			CHANNELS 3 Xrotation Yrotation Zrotation
			JOINT LeftFoot
			{
				OFFSET 0.00000 -15.71209 0.00000
				CHANNELS 3 Xrotation Yrotation Zrotation
				JOINT LeftToeBase
				{
					OFFSET 0.00000 -1.61881 6.04147
					CHANNELS 3 Xrotation Yrotation Zrotation
					End Site
					{
						OFFSET 0.00000 0.00000 2.95275
					}
				}
			}
		}
	}
	JOINT RightUpLeg
	{
		OFFSET -3.62969 0.00000 0.00000
		CHANNELS 3 Xrotation Yrotation Zrotation
		JOINT RightLeg
		{
			OFFSET 0.00000 -17.03056 0.00000
			CHANNELS 3 Xrotation Yrotation Zrotation
			JOINT RightFoot
			{
				OFFSET 0.00000 -15.71209 0.00000
				CHANNELS 3 Xrotation Yrotation Zrotation
				JOINT RightToeBase
				{
					OFFSET 0.00000 -1.61881 6.04147
					CHANNELS 3 Xrotation Yrotation Zrotation
					End Site
					{
						OFFSET 0.00000 0.00000 2.95275
					}
				}
			}
		}
	}
	JOINT Spine
	{
		OFFSET 0.00000 0.03937 0.00000
		CHANNELS 3 Xrotation Yrotation Zrotation
		JOINT Spine1
		{
			OFFSET 0.00000 7.22408 0.00000
			CHANNELS 3 Xrotation Yrotation Zrotation
			JOINT Neck
			{
				OFFSET 0.00000 10.28565 0.00000
				CHANNELS 3 Xrotation Yrotation Zrotation
				JOINT Head
				{
					OFFSET 0.00000 6.80825 0.00000
					CHANNELS 3 Xrotation Yrotation Zrotation
					End Site
					{
						OFFSET 0.00000 4.52755 0.00000
					}
				}
			}
			JOINT LeftShoulder
			{
				OFFSET 0.00000 10.28565 0.00000
				CHANNELS 3 Xrotation Yrotation Zrotation
				JOINT LeftArm
				{
					OFFSET 7.17573 -0.00003 0.00000
					CHANNELS 3 Xrotation Yrotation Zrotation
					JOINT LeftForeArm
					{
						OFFSET 9.77829 -0.00004 0.00000
						CHANNELS 3 Xrotation Yrotation Zrotation
						JOINT LeftHand
						{
							OFFSET 9.41947 -0.00003 0.00000
							CHANNELS 3 Xrotation Yrotation Zrotation
							JOINT LeftHandThumb
							{
								OFFSET 0.00000 0.00000 0.00000
								CHANNELS 3 Xrotation Yrotation Zrotation
								End Site
								{
									OFFSET 0.00000 0.00000 3.93700
								}
							}
							JOINT L_Wrist_End
							{
								OFFSET 3.93700 -0.00001 0.00000
								CHANNELS 3 Xrotation Yrotation Zrotation
							}
						}
					}
				}
			}
			JOINT RightShoulder
			{
				OFFSET 0.00000 10.28565 0.00000
				CHANNELS 3 Xrotation Yrotation Zrotation
				JOINT RightArm
				{
					OFFSET -7.17573 -0.00003 0.00000
					CHANNELS 3 Xrotation Yrotation Zrotation
					JOINT RightForeArm
					{
						OFFSET -9.77829 -0.00004 0.00000
						CHANNELS 3 Xrotation Yrotation Zrotation
						JOINT RightHand
						{
							OFFSET -9.41947 -0.00003 0.00000
							CHANNELS 3 Xrotation Yrotation Zrotation
							JOINT RightHandThumb
							{
								OFFSET 0.00000 0.00000 0.00000
								CHANNELS 3 Xrotation Yrotation Zrotation
								End Site
								{
									OFFSET 0.00000 0.00000 3.93700
								}
							}
							JOINT R_Wrist_End
							{
								OFFSET -5.39369 -0.00002 0.00000
								CHANNELS 3 Xrotation Yrotation Zrotation
							}
						}
					}
				}
			}
		}
	}
}
MOTION
Frames: 8
Frame Time: 0.008333
 0.2843 35.1389 -4.5874 1.7638 -2.5155 -1.6040 -4.3924 8.6933 12.4218 10.0973 -0.0000 -0.0000 1.2925 15.4709 -14.7070 -9.5391 0.0000 -0.0000 -6.1548 -8.4243 -8.1249 15.0406 -0.0000 -0.0000 -0.9067 -15.1215 12.0418 -6.5773 -0.0000 0.0000 -22.4462 3.9682 2.1984 23.6969 -0.4489 1.7853 22.0523 10.5266 0.4673 -26.6521 4.2434 -10.1270 2.6259 -18.4555 9.3043 -18.2082 -40.0805 -59.3077 -179.9995 -67.5289 -179.9992 22.0414 -4.2763 49.4317 -0.0000 0.0000 0.0000 -0.0000 0.0000 0.0000 0.5247 9.3291 -6.2421 -11.8642 28.6615 62.1635 -179.9997 57.7484 179.9994 2.6357 -0.9376 -35.5705 -0.0000 -0.0000 -0.0000 -0.0000 -0.0000 -0.0000
 0.2590 35.1358 -4.5999 1.7525 -2.5548 -1.5882 -4.3960 8.7225 12.4521 10.0809 -0.0000 -0.0000 1.3664 15.4697 -14.7113 -9.6767 0.0000 0.0000 -6.2522 -8.2615 -8.0903 15.2534 -0.0000 -0.0000 -0.9811 -15.2372 11.9544 -6.8213 0.0000 0.0000 -22.4316 3.9563 2.1998 23.7051 -0.4610 1.7927 22.1056 10.5262 0.4621 -26.7669 4.2594 -10.1670 2.5841 -18.6017 9.3074 -18.2203 -40.3642 -59.0765 -179.9995 -67.4511 -179.9992 21.7793 -3.8937 49.5438 -0.0000 -0.0000 -0.0000 -0.0000 -0.0000 -0.0000 0.6052 9.4513 -6.2775 -11.9095 28.9972 61.9778 -179.9997 57.6511 179.9994 1.8882 -1.0897 -35.8111 -0.0000 -0.0000 -0.0000 -0.0000 -0.0000 -0.0000
 0.2310 35.1304 -4.6146 1.7664 -2.5942 -1.5792 -4.4254 8.7067 12.4912 10.0798 -0.0000 -0.0000 1.3954 15.5131 -14.7351 -9.6439 0.0000 -0.0000 -6.4052 -8.1110 -8.0474 15.5293 0.0000 -0.0000 -1.1418 -15.3416 11.8793 -6.7390 0.0000 0.0000 -22.3876 3.9442 2.1994 23.6856 -0.4738 1.8026 22.0625 10.5717 0.4290 -26.8282 4.2278 -10.1470 2.5864 -18.6176 9.3688 -18.4326 -40.7913 -59.0012 -179.9995 -67.5704 -179.9992 21.7998 -3.9548 50.1637 0.0000 -0.0000 0.0000 0.0000 -0.0000 0.0000 0.5917 9.4777 -6.3203 -11.9397 29.4422 61.8534 -179.9997 57.6803 179.9994 1.3578 -0.6734 -36.2340 -0.0000 -0.0000 0.0000 -0.0000 -0.0000 0.0000
 0.2017 35.1261 -4.6282 1.7735 -2.6233 -1.5699 -4.4523 8.7057 12.5329 10.0775 -0.0000 -0.0000 1.4485 15.5388 -14.8141 -9.6577 -0.0000 0.0000 -6.5459 -7.9902 -8.0037 15.7922 -0.0000 0.0000 -1.2782 -15.4339 11.8196 -6.7559 0.0000 -0.0000 -22.3600 3.9283 2.2000 23.6745 -0.4890 1.8150 22.0791 10.5581 0.4227 -26.9392 4.2415 -10.1954 2.5401 -18.6886 9.4128 -18.5507 -41.1122 -58.9091 -179.9995 -67.6752 -179.9992 21.7937 -4.0768 50.6964 0.0000 0.0000 0.0000 0.0000 0.0000 0.0000 0.5666 9.5450 -6.3681 -11.9277 29.7980 61.7342 -179.9997 57.6648 179.9994 0.8239 -0.2892 -36.6423 0.0000 0.0000 -0.0000 0.0000 0.0000 -0.0000
 0.1719 35.1217 -4.6422 1.7510 -2.6281 -1.5567 -4.4410 8.6517 12.5659 10.0706 -0.0000 -0.0000 1.5005 15.5797 -14.8650 -9.6449 -0.0000 0.0000 -6.6606 -7.9133 -7.9740 16.0618 -0.0000 0.0000 -1.4265 -15.5018 11.7897 -6.7537 0.0000 -0.0000 -22.3306 3.8990 2.1989 23.7059 -0.5187 1.8252 22.0804 10.5562 0.4101 -27.0449 4.2490 -10.2534 2.4047 -18.8198 9.4699 -18.5472 -41.3035 -58.8528 -179.9995 -67.7236 -179.9992 21.7912 -4.0954 51.0870 -0.0000 0.0000 0.0000 -0.0000 0.0000 0.0000 0.4230 9.6519 -6.4357 -11.8204 30.0671 61.6752 -179.9997 57.6386 179.9994 0.5271 0.0262 -37.0016 -0.0000 0.0000 -0.0000 -0.0000 0.0000 -0.0000
 0.1386 35.1157 -4.6558 1.7497 -2.6889 -1.5487 -4.4682 8.7135 12.6246 10.0758 -0.0000 0.0000 1.5270 15.5647 -14.9344 -9.5848 -0.0000 -0.0000 -6.8001 -7.7282 -7.9172 16.3425 -0.0000 0.0000 -1.5879 -15.6211 11.7083 -6.7325 0.0000 0.0000 -22.3017 3.8797 2.1990 23.7198 -0.5338 1.8430 22.0492 10.5913 0.3786 -27.1276 4.2549 -10.2854 2.3851 -18.7941 9.5495 -18.7526 -41.5971 -58.8500 -179.9995 -67.8493 -179.9992 21.6466 -4.2703 51.5504 -0.0000 0.0000 -0.0000 -0.0000 0.0000 -0.0000 0.4606 9.7218 -6.5203 -11.9057 30.3749 61.5780 -179.9997 57.5943 179.9994 0.2827 0.2757 -37.4379 -0.0000 0.0000 -0.0000 -0.0000 0.0000 -0.0000
 0.1034 35.1103 -4.6693 1.7450 -2.7080 -1.5396 -4.4851 8.6879 12.6756 10.0877 -0.0000 -0.0000 1.5639 15.5902 -14.9737 -9.5806 -0.0000 -0.0000 -6.9414 -7.6027 -7.8665 16.6426 -0.0000 -0.0000 -1.7426 -15.7165 11.6701 -6.7110 0.0000 0.0000 -22.2678 3.8592 2.1910 23.7262 -0.5499 1.8573 22.0237 10.6231 0.3510 -27.2300 4.2331 -10.2932 2.3683 -18.8365 9.6264 -18.8805 -41.8533 -58.8056 -179.9995 -67.9502 -179.9992 21.6527 -4.2214 52.0697 -0.0000 0.0000 0.0000 -0.0000 0.0000 0.0000 0.4250 9.7645 -6.5694 -11.9223 30.6285 61.5123 -179.9997 57.5402 179.9994 0.2916 0.4469 -37.7950 -0.0000 -0.0000 0.0000 -0.0000 -0.0000 0.0000
 0.0660 35.1045 -4.6829 1.7442 -2.7533 -1.5260 -4.4966 8.6882 12.7270 10.0791 -0.0000 -0.0000 1.6165 15.6261 -15.0404 -9.5614 -0.0000 0.0000 -7.0973 -7.4714 -7.8177 16.9532 0.0000 0.0000 -1.9066 -15.7942 11.6111 -6.7098 0.0000 -0.0000 -22.2336 3.8417 2.1803 23.7233 -0.5618 1.8715 22.0144 10.6534 0.3270 -27.3562 4.2337 -10.3161 2.3257 -18.8525 9.6830 -18.9703 -42.1020 -58.7590 -179.9995 -68.0391 -179.9992 21.5873 -4.1362 52.5428 0.0000 -0.0000 -0.0000 0.0000 -0.0000 -0.0000 0.3989 9.8027 -6.5893 -11.9424 30.8756 61.3849 -179.9997 57.4700 179.9994 0.4385 0.4572 -38.1812 -0.0000 0.0000 -0.0000 -0.0000 0.0000 -0.0000
